<?xml version="1.0" encoding="utf-8"?>
<svg viewBox="1.335052490234375 -9.345378875732422 500 500" xmlns="http://www.w3.org/2000/svg" xmlns:bx="https://boxy-svg.com">
  <defs>
    <radialGradient id="gradient-5" gradientUnits="userSpaceOnUse" cx="348.741" cy="215.593" r="0" gradientTransform="matrix(NaN, NaN, NaN, NaN, NaN, NaN)">
      <stop offset="0" style="stop-color: rgba(204, 117, 17, 1)"/>
      <stop offset="1" style="stop-color: rgba(110, 63, 9, 1)"/>
    </radialGradient>
  </defs>
  <path style="fill: rgb(216, 216, 216); stroke: rgb(0, 0, 0);" d="M 44.656 159.725"/>
  <path style="fill: rgb(216, 216, 216); stroke: rgb(0, 0, 0);" d="M 97.656 105.725"/>
  <path style="stroke: rgb(0, 0, 0); fill: url(#gradient-5);" d="M 215.741 215.593" transform="matrix(0.999916, -0.012928, 0.012928, 0.999916, 0, 0)" bx:origin="-Infinity -Infinity"/>
  <path style="fill: rgb(216, 216, 216); stroke: rgb(0, 0, 0);" d="M 78.487 196.236"/>
  <path style="fill: rgb(216, 216, 216); stroke: rgb(0, 0, 0);" d="M 22.145 252.579"/>
  <path style="fill: rgb(216, 216, 216); stroke: rgb(0, 0, 0);"/>
  <path style="fill: rgb(216, 216, 216); stroke: rgb(0, 0, 0);" d="M 95.152 71.647"/>
  <path style="fill: rgb(216, 216, 216); stroke: rgb(0, 0, 0);" d="M 89.597 79.582"/>
  <path style="fill: rgb(216, 216, 216); stroke: rgb(0, 0, 0);" d="M 84.836 89.105"/>
  <path style="fill: rgb(216, 216, 216); stroke: rgb(0, 0, 0);" d="M 205.314 197.509"/>
  <path style="fill: rgb(216, 216, 216); stroke: rgb(0, 0, 0);" d="M 151.715 56.722"/>
  <path style="fill: rgb(216, 216, 216); stroke: rgb(0, 0, 0);"/>
  <path style="fill: rgb(216, 216, 216); stroke: rgb(0, 0, 0);"/>
  <path style="fill: rgb(216, 216, 216); stroke: rgb(0, 0, 0);" d="M 329.678 377.58"/>
  <path style="fill: rgb(216, 216, 216); stroke: rgb(0, 0, 0);" d="M 337.876 395.3"/>
  <path style="fill: rgb(216, 216, 216); stroke: rgb(0, 0, 0);"/>
  <path style="fill: rgb(216, 216, 216); stroke: rgb(0, 0, 0);"/>
  <path style="fill: rgb(216, 216, 216); stroke: rgb(0, 0, 0);"/>
  <path style="fill: rgb(216, 216, 216); stroke: rgb(0, 0, 0);"/>
  <path style="fill: rgb(216, 216, 216); stroke: rgb(0, 0, 0);"/>
  <path style="fill: rgb(216, 216, 216); stroke: rgb(0, 0, 0);" d="M 326.305 132.185"/>
  <g transform="matrix(40.996975, 0, 0, 40.723972, -3005.804443, -552.484863)" style="stroke-width: 25.3594; vector-effect: non-scaling-stroke;">
    <ellipse transform="matrix(-0.763384, 0.645942, -0.645947, -0.763385, 94.758366, 14.551308)" cx="10.05" cy="6.051" rx="1.792" ry="1.792" style="fill: rgb(172, 65, 0);"/>
    <ellipse transform="matrix(-0.763387, 0.645941, -0.645939, -0.763389, 87.392442, 14.550736)" cx="10.05" cy="6.051" rx="1.792" ry="1.792" style="fill: rgb(172, 65, 0);"/>
    <ellipse transform="matrix(0.707103, 0.707107, -0.707108, 0.707107, 79.545784, 2.628814)" cx="12.313" cy="7.262" rx="1.042" ry="1.098" style="fill: rgb(255, 137, 64);"/>
    <ellipse transform="matrix(0.707102, 0.707107, -0.707102, 0.707111, 72.126631, 2.575922)" cx="12.313" cy="7.262" rx="1.042" ry="1.098" style="fill: rgb(255, 137, 64);"/>
    <path d="M 76.489 16.034 C 78.592 15.755 84.242 20.202 81.833 24.855 C 78.945 29.892 71.813 26.14 71.234 24.733 C 70.666 23.08 74.114 16.375 76.489 16.034 Z" style="fill: rgb(172, 65, 0);" transform="matrix(-0.506142, -0.86245, 0.86245, -0.506142, 99.304201, 97.555171)" bx:origin="0.57 0.38"/>
    <path d="M 78.94 20.06 C 79.787 19.768 81.807 23.441 81.279 24.095 C 80.853 24.744 76.9 24.909 76.6 24.095 C 76.233 23.295 77.975 20.194 78.94 20.06 Z" style="fill: rgb(255, 137, 64);" transform="matrix(-0.514478, -0.857504, 0.857504, -0.514478, 100.419526, 101.546827)"/>
    <ellipse transform="matrix(-0.997972, -0.063648, 0.081019, -0.996864, 80.433945, 26.801511)" cx="3.569" cy="7.839" rx="0.675" ry="1.274" style="fill: rgb(28, 24, 24);"/>
    <ellipse transform="matrix(0.997971, -0.063649, -0.081025, -0.996863, 78.157865, 26.801876)" cx="3.569" cy="7.839" rx="0.675" ry="1.274" style="fill: rgb(28, 24, 24);"/>
    <path d="M 79.198 20.311 C 79.722 20.303 81.139 21.762 80.618 22.253 C 80.214 22.655 78.105 22.638 77.778 22.253 C 77.457 21.882 78.608 20.326 79.198 20.311 Z" style="fill: rgb(28, 24, 24);" transform="matrix(-0.999868, 0.016238, -0.016238, -0.999868, 158.791222, 41.569813)"/>
    <path d="M 78.473 23.482 C 78.473 23.85 81.156 23.628 81.156 23.008" style="fill: rgb(28, 24, 24);"/>
  </g>
  <path d="M 178.29 -18.475 C 181.362 -23.083 147.954 -35.393 123.001 -35.836 C 91.367 -36.436 82.753 -33.501 77.908 -27.818 C 68.63 -16.929 58.245 -3.733 47.542 20.035 C 41.651 33.103 23.982 79.787 25.661 88.435 C 27.371 97.116 32.817 105.29 43.552 107.817 C 50.011 109.363 60.746 99.261 60.682 99.799 C 60.334 102.324 57.707 118.706 71.291 123.472 C 83.293 127.67 90.733 110.184 90.733 111.256 C 90.733 115.234 94.723 129.186 106.249 131.426 C 117.553 133.605 122.654 115.107 122.654 116.055 C 122.654 128.365 124.141 136.951 123.983 149.229 C 123.824 162.044 126.834 218.607 127.814 235.306 C 128.479 246.29 140.828 260.336 148.619 258.001 C 158.214 255.161 162.078 242.756 164.356 233.033 C 167.27 220.281 168.157 133.352 169.172 107.564 C 169.55 97.557 171.482 58.165 172.718 58.165 C 175.535 58.165 187.885 71.043 193.491 74.642 C 201.977 80.04 206.79 80.575 213.282 75.778 C 220.469 70.475 226.233 61.321 222.908 47.97 C 220.154 36.764 167.967 -3.04 178.29 -18.475 Z" style="stroke: rgb(255, 255, 255); fill: rgb(80, 176, 39); stroke-width: 11;" transform="matrix(0.176221, -0.984351, 0.984351, 0.176221, -6.698207, 214.341475)"/>
</svg>